<?xml version="1.0" encoding="UTF-8"?>
<svg xmlns="http://www.w3.org/2000/svg" id="b" viewBox="0 0 102.86 33.24">
  <defs>
    <style>.d{fill:#04d4ce;stroke-width:0px;}</style>
  </defs>
  <g id="c">
    <path class="d" d="M3.79,33.24H.43c-.23,0-.43-.2-.43-.46V.44c0-.24.2-.44.43-.44,2.09,0,3.78,1.75,3.78,3.92v28.88c0,.24-.2.44-.43.44h0ZM56.86,33.24h-3.45c-.21,0-.39-.18-.39-.4V.4c0-.21.18-.4.39-.4,2.11,0,3.83,1.78,3.83,3.96v28.88c0,.21-.17.4-.37.4ZM17.23,12.5c-5.51,0-9.99,4.62-9.99,10.34s4.46,10.34,9.99,10.34,9.99-4.62,9.99-10.34-4.48-10.34-9.99-10.34ZM17.23,16.86c3.18,0,5.77,2.68,5.77,5.97s-2.59,5.97-5.77,5.97-5.76-2.68-5.76-5.97,2.59-5.97,5.76-5.97ZM39.47,12.5c-5.51,0-9.99,4.62-9.99,10.34s4.46,10.34,9.99,10.34,9.99-4.62,9.99-10.34-4.46-10.34-9.99-10.34ZM39.47,16.86c3.18,0,5.76,2.68,5.76,5.97s-2.59,5.97-5.76,5.97-5.77-2.68-5.77-5.97,2.59-5.97,5.77-5.97ZM70.62,12.5c-5.51,0-9.99,4.62-9.99,10.34s4.46,10.34,9.99,10.34,9.99-4.62,9.99-10.34c-.01-5.72-4.48-10.34-9.99-10.34ZM70.62,16.86c3.18,0,5.76,2.68,5.76,5.97s-2.59,5.97-5.76,5.97-5.77-2.68-5.77-5.97,2.57-5.97,5.77-5.97ZM92.87,12.42c-5.51,0-9.99,4.62-9.99,10.34s4.46,10.34,9.99,10.34,9.99-4.62,9.99-10.34-4.48-10.34-9.99-10.34ZM92.87,16.78c3.18,0,5.77,2.68,5.77,5.97s-2.59,5.97-5.77,5.97-5.76-2.68-5.76-5.97,2.59-5.97,5.76-5.97ZM40.24,7.26L48.57.23c.39-.32.96-.04.96.47v11.15c0,.23-.24.36-.43.25-1.94-1.23-1.76-3.28-3.51-4.14-2.2-1.08-3.15.58-5.27-.19-.2-.09-.24-.37-.08-.51h0Z"></path>
  </g>
</svg>
