<?xml version="1.0" encoding="UTF-8" standalone="no"?>
<!DOCTYPE svg PUBLIC "-//W3C//DTD SVG 1.1//EN" "http://www.w3.org/Graphics/SVG/1.1/DTD/svg11.dtd">
<svg xmlns="http://www.w3.org/2000/svg" version="1.1" viewBox="0.00 0.00 256.00 256.00">
<path stroke="#82a1fa" stroke-width="2.00" fill="none" stroke-linecap="butt" vector-effect="non-scaling-stroke" d="
  M 182.48 95.84
  A 0.61 0.61 0.0 0 1 183.09 96.45
  L 183.09 115.26
  A 0.61 0.61 0.0 0 0 183.70 115.87
  L 195.65 115.92
  A 0.61 0.61 0.0 0 0 196.26 115.31
  L 196.23 27.84
  A 0.61 0.61 0.0 0 0 195.62 27.23
  L 58.12 27.23
  A 0.61 0.61 0.0 0 0 57.51 27.84
  L 57.50 228.06
  A 0.61 0.61 0.0 0 0 58.11 228.67
  L 195.58 228.66
  A 0.61 0.61 0.0 0 0 196.19 228.05
  L 196.26 164.81
  A 0.61 0.61 0.0 0 1 196.46 164.36
  L 221.73 141.32
  A 0.61 0.61 0.0 0 0 221.76 140.46
  L 213.74 131.78
  A 0.61 0.61 0.0 0 0 212.88 131.75
  L 183.30 158.71
  A 0.61 0.61 0.0 0 0 183.10 159.16
  L 183.08 214.91
  A 0.61 0.61 0.0 0 1 182.47 215.52
  L 71.17 215.52
  A 0.61 0.61 0.0 0 1 70.56 214.91
  L 70.56 150.73
  A 0.61 0.61 0.0 0 1 71.17 150.12
  L 119.73 150.16
  A 0.61 0.61 0.0 0 1 120.34 150.77
  L 120.34 183.13
  A 0.61 0.61 0.0 0 0 120.94 183.74
  L 132.72 183.96
  A 0.61 0.61 0.0 0 0 133.34 183.35
  L 133.41 137.66
  A 0.61 0.61 0.0 0 0 132.80 137.05
  L 71.17 137.07
  A 0.61 0.61 0.0 0 1 70.56 136.46
  L 70.56 40.85
  A 0.61 0.61 0.0 0 1 71.17 40.24
  L 182.50 40.24
  A 0.61 0.61 0.0 0 1 183.11 40.85
  L 183.09 82.15
  A 0.61 0.61 0.0 0 1 182.48 82.76
  L 127.36 82.78
  A 0.61 0.61 0.0 0 0 126.75 83.39
  L 126.82 95.08
  A 0.61 0.61 0.0 0 0 127.42 95.68
  L 182.48 95.84"
/>
<path fill="#0543f5" d="
  M 0.00 254.38
  L 0.00 1.49
  Q 0.12 1.35 0.22 1.13
  Q 0.38 0.72 0.83 0.72
  L 254.12 0.73
  Q 255.00 0.73 255.00 1.62
  L 255.00 254.43
  Q 255.00 255.44 253.99 255.44
  L 0.77 255.44
  Q 0.33 255.44 0.24 255.01
  Q 0.16 254.62 0.00 254.38
  Z
  M 182.48 95.84
  A 0.61 0.61 0.0 0 1 183.09 96.45
  L 183.09 115.26
  A 0.61 0.61 0.0 0 0 183.70 115.87
  L 195.65 115.92
  A 0.61 0.61 0.0 0 0 196.26 115.31
  L 196.23 27.84
  A 0.61 0.61 0.0 0 0 195.62 27.23
  L 58.12 27.23
  A 0.61 0.61 0.0 0 0 57.51 27.84
  L 57.50 228.06
  A 0.61 0.61 0.0 0 0 58.11 228.67
  L 195.58 228.66
  A 0.61 0.61 0.0 0 0 196.19 228.05
  L 196.26 164.81
  A 0.61 0.61 0.0 0 1 196.46 164.36
  L 221.73 141.32
  A 0.61 0.61 0.0 0 0 221.76 140.46
  L 213.74 131.78
  A 0.61 0.61 0.0 0 0 212.88 131.75
  L 183.30 158.71
  A 0.61 0.61 0.0 0 0 183.10 159.16
  L 183.08 214.91
  A 0.61 0.61 0.0 0 1 182.47 215.52
  L 71.17 215.52
  A 0.61 0.61 0.0 0 1 70.56 214.91
  L 70.56 150.73
  A 0.61 0.61 0.0 0 1 71.17 150.12
  L 119.73 150.16
  A 0.61 0.61 0.0 0 1 120.34 150.77
  L 120.34 183.13
  A 0.61 0.61 0.0 0 0 120.94 183.74
  L 132.72 183.96
  A 0.61 0.61 0.0 0 0 133.34 183.35
  L 133.41 137.66
  A 0.61 0.61 0.0 0 0 132.80 137.05
  L 71.17 137.07
  A 0.61 0.61 0.0 0 1 70.56 136.46
  L 70.56 40.85
  A 0.61 0.61 0.0 0 1 71.17 40.24
  L 182.50 40.24
  A 0.61 0.61 0.0 0 1 183.11 40.85
  L 183.09 82.15
  A 0.61 0.61 0.0 0 1 182.48 82.76
  L 127.36 82.78
  A 0.61 0.61 0.0 0 0 126.75 83.39
  L 126.82 95.08
  A 0.61 0.61 0.0 0 0 127.42 95.68
  L 182.48 95.84
  Z"
/>
<path fill="#ffffff" d="
  M 182.48 95.84
  L 127.42 95.68
  A 0.61 0.61 0.0 0 1 126.82 95.08
  L 126.75 83.39
  A 0.61 0.61 0.0 0 1 127.36 82.78
  L 182.48 82.76
  A 0.61 0.61 0.0 0 0 183.09 82.15
  L 183.11 40.85
  A 0.61 0.61 0.0 0 0 182.50 40.24
  L 71.17 40.24
  A 0.61 0.61 0.0 0 0 70.56 40.85
  L 70.56 136.46
  A 0.61 0.61 0.0 0 0 71.17 137.07
  L 132.80 137.05
  A 0.61 0.61 0.0 0 1 133.41 137.66
  L 133.34 183.35
  A 0.61 0.61 0.0 0 1 132.72 183.96
  L 120.94 183.74
  A 0.61 0.61 0.0 0 1 120.34 183.13
  L 120.34 150.77
  A 0.61 0.61 0.0 0 0 119.73 150.16
  L 71.17 150.12
  A 0.61 0.61 0.0 0 0 70.56 150.73
  L 70.56 214.91
  A 0.61 0.61 0.0 0 0 71.17 215.52
  L 182.47 215.52
  A 0.61 0.61 0.0 0 0 183.08 214.91
  L 183.10 159.16
  A 0.61 0.61 0.0 0 1 183.30 158.71
  L 212.88 131.75
  A 0.61 0.61 0.0 0 1 213.74 131.78
  L 221.76 140.46
  A 0.61 0.61 0.0 0 1 221.73 141.32
  L 196.46 164.36
  A 0.61 0.61 0.0 0 0 196.26 164.81
  L 196.19 228.05
  A 0.61 0.61 0.0 0 1 195.58 228.66
  L 58.11 228.67
  A 0.61 0.61 0.0 0 1 57.50 228.06
  L 57.51 27.84
  A 0.61 0.61 0.0 0 1 58.12 27.23
  L 195.62 27.23
  A 0.61 0.61 0.0 0 1 196.23 27.84
  L 196.26 115.31
  A 0.61 0.61 0.0 0 1 195.65 115.92
  L 183.70 115.87
  A 0.61 0.61 0.0 0 1 183.09 115.26
  L 183.09 96.45
  A 0.61 0.61 0.0 0 0 182.48 95.84
  Z"
/>
</svg>
